<?xml version="1.0" encoding="utf-8"?>
<!-- Generator: Adobe Illustrator 19.2.0, SVG Export Plug-In . SVG Version: 6.00 Build 0)  -->
<svg version="1.1" id="Layer_1" xmlns="http://www.w3.org/2000/svg" xmlns:xlink="http://www.w3.org/1999/xlink" x="0px" y="0px"
	 viewBox="0 0 1920 1080" style="enable-background:new 0 0 1920 1080;" xml:space="preserve">
<style type="text/css">
	.st0{fill:none;}
	.st1{fill:#333333;}
	.st2{fill:#F69B76;}
	.st3{fill:#4D4D4D;}
	.st4{fill:#754C24;}
	.st5{fill:#F8C09D;}
	.st6{fill:#F6AE8D;}
	.st7{fill:#EF937E;}
	.st8{fill:#333333;stroke:url(#SVGID_1_);stroke-miterlimit:10;}
	.st9{fill:none;stroke:#EF937E;stroke-width:4.5315;stroke-linecap:round;stroke-miterlimit:10;}
</style>
<pattern  y="1080" width="193" height="101.5" patternUnits="userSpaceOnUse" id="Unnamed_Pattern" viewBox="0 -101.5 193 101.5" style="overflow:visible;">
	<g>
		<rect y="-101.5" class="st0" width="193" height="101.5"/>
		<path class="st1" d="M30.8-75.6v0.4h-9.6C9.6-75.2,0-66,0-54.3l0-0.2v29.9V0h36.3v-11.1c0-7.4,5.7-13.3,13.2-13.3h118
			c14.1,0,25.6-11.6,25.6-25.7v-51.3H56.6C42.5-101.5,30.8-89.7,30.8-75.6z"/>
	</g>
</pattern>
<path class="st2" d="M1039.8,575.6h-152l-1.4-177.3c0-17.5,10.8-31.7,24.2-31.7h103.5c13.4,0,24.2,14.2,24.2,31.7L1039.8,575.6z"/>
<path class="st3" d="M964.5,651.6h-1.3c-41.6,0-75.4-34.2-75.4-75.8v-0.2h152v0.2C1039.8,617.4,1006.1,651.6,964.5,651.6z"/>
<rect x="908.8" y="575.6" class="st3" width="41" height="342"/>
<rect x="976.8" y="575.6" transform="matrix(-1 -1.224647e-16 1.224647e-16 -1 1994.5723 1493.2028)" class="st3" width="41" height="342"/>
<path class="st4" d="M939.4,917.6l0,41l-80.8,0.4c0,0,3-18.4,22.9-21.9c19.8-3.6,36.6,7.8,36.6,7.8l2.1-27.3H939.4z"/>
<path class="st4" d="M987.5,917.6l0,41l80.8,0.4c0,0-3-18.4-22.9-21.9c-19.8-3.6-36.6,7.8-36.6,7.8l-2.1-27.3H987.5z"/>
<path class="st2" d="M1159.1,496.7l-1.3,1.6c-6.1,7.4-17.1,8.5-24.5,2.4l-124.3-100.3c-7.4-6.1-8.5-17.1-2.4-24.5l1.3-1.6
	c6.1-7.4,17.1-8.5,24.5-2.4l124.3,100.3C1164.1,478.3,1165.2,489.3,1159.1,496.7z"/>
<path class="st2" d="M1056,579.5L1056,579.5c-7.1-7.3-6.9-19,0.5-26.1l79.1-76.3c7.3-7.1,19-6.9,26.1,0.5l0,0
	c7.1,7.3,6.9,19-0.5,26.1l-79.1,76.3C1074.8,587,1063.1,586.8,1056,579.5z"/>
<g>
	<path class="st5" d="M1062.3,583.7l7.6,8.4l-26.3,23.8c-2.3,2.1-5.9,1.9-8-0.4v0c-2.1-2.3-1.9-5.9,0.4-8L1062.3,583.7z"/>
	<path class="st5" d="M1054.3,575l7.3,8.7l-32.8,27.7c-2.4,2-6,1.7-8-0.7v0c-2-2.4-1.7-6,0.7-8L1054.3,575z"/>
	<path class="st5" d="M1044.5,569.8l6.4,9.4l-35.6,24c-2.6,1.8-6.1,1.1-7.9-1.5l0,0c-1.8-2.6-1.1-6.1,1.5-7.9L1044.5,569.8z"/>
	<path class="st5" d="M1044.6,560.3l4.5,10.4l-39.4,17c-2.9,1.2-6.2-0.1-7.5-3l0,0c-1.2-2.9,0.1-6.2,3-7.5L1044.6,560.3z"/>
	<path class="st5" d="M1050,554.3l-0.7,11.3l-25.8-1.5c-3.1-0.2-5.5-2.9-5.3-6l0,0c0.2-3.1,2.9-5.5,6-5.3L1050,554.3z"/>
	<path class="st5" d="M1043,556l-7.5,5.1c-1.4,0.9-1.7,2.8-0.8,4.2l22.2,32.9c0.9,1.4,2.8,1.7,4.2,0.8l7.5-5.1
		c5.2-3.5,6.6-10.5,3.1-15.7l-12.9-19.1C1055.3,553.8,1048.2,552.5,1043,556z"/>
</g>
<path class="st2" d="M926.5,381l0.4,2c1.8,9.5-4.5,18.6-14,20.3l-137,25.5c-9.5,1.8-18.6-4.5-20.3-14l-0.4-2
	c-1.8-9.5,4.5-18.6,14-20.3l137-25.5C915.6,365.3,924.8,371.5,926.5,381z"/>
<path class="st2" d="M795.8,284.7L795.8,284.7c10,1.9,16.6,11.6,14.7,21.6l-20.7,107.9c-1.9,10-11.6,16.6-21.6,14.7h0
	c-10-1.9-16.6-11.6-14.7-21.6l20.7-107.9C776.1,289.4,785.8,282.8,795.8,284.7z"/>
<g>
	<path class="st5" d="M785,296.3l-11.3-0.6l2-35.4c0.2-3.1,2.9-5.5,6-5.4l0,0c3.1,0.2,5.5,2.9,5.4,6L785,296.3z"/>
	<path class="st5" d="M796.8,296.9l-11.3-1l3.9-42.7c0.3-3.1,3-5.4,6.2-5.1l0,0c3.1,0.3,5.4,3,5.1,6.2L796.8,296.9z"/>
	<path class="st5" d="M807.4,293.7l-11.1-2.2l8.4-42.1c0.6-3.1,3.6-5.1,6.7-4.5l0,0c3.1,0.6,5.1,3.6,4.5,6.7L807.4,293.7z"/>
	<path class="st5" d="M814.1,300.5l-10.5-4.2l16-39.8c1.2-2.9,4.5-4.3,7.4-3.1h0c2.9,1.2,4.3,4.5,3.1,7.4L814.1,300.5z"/>
	<path class="st5" d="M814.4,308.6l-7.5-8.5l19.4-17.1c2.4-2.1,5.9-1.8,8,0.5l0,0c2.1,2.4,1.8,5.9-0.5,8L814.4,308.6z"/>
	<path class="st5" d="M818.2,302.5l1.8-8.9c0.3-1.6-0.7-3.2-2.4-3.5l-38.9-7.8c-1.6-0.3-3.2,0.7-3.5,2.4l-1.8,8.9
		c-1.2,6.1,2.7,12.1,8.9,13.3l22.5,4.5C811,312.6,817,308.7,818.2,302.5z"/>
</g>
<polygon class="st1" points="1068.4,238.4 1053,227.5 1053,186.2 1068.4,186.2 "/>
<rect x="881.7" y="207.9" class="st1" width="36.3" height="39"/>
<path class="st5" d="M996.8,363.2c0,13.4-10.9,24.5-24.3,24.5h0h-0.2c-13.4,0-24.5-11.1-24.5-24.5v-21.5h49V363.2z"/>
<path class="st6" d="M947.8,357.6c9.5,4.1,19.4,6.3,28.9,6.3c6.6,0,13.4-1.1,20.1-3.1v-15.5h-49V357.6z"/>
<path class="st5" d="M976.6,352.6c-34.9,0-76.8-30.5-76.8-73.2V150.9h154.1v128.5C1053.9,322.1,1011.5,352.6,976.6,352.6z"/>
<circle class="st5" cx="899.4" cy="244.7" r="21.9"/>
<path class="st7" d="M895,247.8c0-4.3,3.5-7.8,7.8-7.8c1.2,0,2.3,0.3,3.3,0.7c-1.4-2.3-3.8-3.8-6.7-3.8c-4.3,0-7.8,3.5-7.8,7.8
	c0,3.1,1.8,5.8,4.5,7C895.4,250.6,895,249.2,895,247.8z"/>
<circle class="st5" cx="1055.6" cy="244.7" r="21.9"/>
<path class="st7" d="M1062.8,247.8c0-4.3-3.5-7.8-7.8-7.8c-1.2,0-2.3,0.3-3.3,0.7c1.4-2.3,3.8-3.8,6.7-3.8c4.3,0,7.8,3.5,7.8,7.8
	c0,3.1-1.8,5.8-4.5,7C1062.4,250.6,1062.8,249.2,1062.8,247.8z"/>
<pattern  id="SVGID_1_" xlink:href="#Unnamed_Pattern" patternTransform="matrix(1 0 0 1 1 1)">
</pattern>
<path class="st8" d="M912.5,146.8v0.4h-9.6c-11.7,0-21.2,9.3-21.2,20.9l0-0.2v29.9v24.6h36.3v-11.1c0-7.4,5.7-13.3,13.2-13.3h118
	c14.1,0,25.6-11.6,25.6-25.7v-51.3H938.3C924.2,120.9,912.5,132.8,912.5,146.8z"/>
<path class="st9" d="M958.1,282.4c0,13.6,11.1,24.7,24.7,24.7h0c13.6,0,24.7-11.1,24.7-24.7"/>
<path class="st7" d="M978.7,256.4v15.9c0,0.7,0.9,1.3,1.6,1.3h9.4c2.6,0,4-3,2.3-4.9l-10.9-13C980.3,254.7,978.7,255.2,978.7,256.4z
	"/>
<ellipse class="st1" cx="951.7" cy="247.3" rx="5" ry="8.8"/>
<ellipse class="st1" cx="1015.2" cy="247.3" rx="5" ry="8.8"/>
</svg>
